<svg width="40" height="40" viewBox="0 0 50 50" fill="none" xmlns="http://www.w3.org/2000/svg">
<path d="M50 22.065V27.9375C46.45 27.9375 43.1818 31.2175 43.1818 35.08C43.1818 40.5325 46.0932 50 29.5455 50V44.995C40.7205 44.995 38.5591 40.995 38.5591 35.0775C38.5591 29.8425 41.3114 26.3275 43.7364 25C41.3114 23.6725 38.5591 21.405 38.5591 16.72C38.5591 10.79 40.6955 4.99 29.5455 5.005V0C46.1023 0 43.1818 11.265 43.1818 16.72C43.1818 20.58 46.45 22.065 50 22.065V22.065ZM6.81818 16.72C6.81818 11.265 3.89773 0 20.4545 0V5.005C9.30455 4.9875 11.4409 10.7875 11.4409 16.72C11.4409 21.4075 8.68864 23.6725 6.26364 25C8.68864 26.3275 11.4409 29.845 11.4409 35.0775C11.4409 40.995 9.27955 44.995 20.4545 44.995V50C3.90682 50 6.81818 40.5325 6.81818 35.0775C6.81818 31.215 3.55 27.935 0 27.935V22.0625C3.55 22.065 6.81818 20.58 6.81818 16.72V16.72ZM27.2727 30V33.195C27.2727 36.0525 25.6318 38.365 23.2409 38.885L22.7886 37.8075C23.8955 37.3475 24.6 35.875 24.6 34.7675H22.7273V30H27.2727V30ZM27.2727 15H22.7273V20H27.2727V15Z" fill="url(#paint0_linear_2_3)"/>
<defs>
<linearGradient id="paint0_linear_2_3" x1="25" y1="0" x2="25" y2="50" gradientUnits="userSpaceOnUse">
<stop stop-color="#18D842" stop-opacity="0.59"/>
<stop offset="1" stop-color="#1851E1" stop-opacity="0.44"/>
</linearGradient>
</defs>
</svg>
