<svg width="799" height="690" viewBox="0 0 485 318" fill="none" xmlns="http://www.w3.org/2000/svg">
<g id="me 1" clip-path="url(#clip0_2_2)">
<g id="leaves">
<path id="Vector" d="M73.9848 271.718C63.2149 281.294 60.1626 298.142 60.1626 298.142C60.1626 298.142 74.5717 299.465 85.3416 289.889C96.1115 280.313 99.1638 263.465 99.1638 263.465C99.1638 263.465 84.7547 262.142 73.9848 271.718Z" fill="#89E781"/>
<path id="Vector_2" d="M78.4711 276.214C73.295 290.998 60.3315 298.617 60.3315 298.617C60.3315 298.617 55.7602 282.265 60.9363 267.48C66.1124 252.696 79.0758 245.077 79.0758 245.077C79.0758 245.077 83.6472 261.429 78.4711 276.214Z" fill="#3ED04C" fill-opacity="0.58"/>
</g>
<g id="vapors">
<path id="Vector_3" d="M388.33 233.473C387.186 224.279 386.884 214.964 387.429 205.692L388.33 190.347C383.362 202.137 384.485 217.656 388.33 233.473V233.473Z" fill="#CACACA"/>
<path id="Vector_4" d="M392.204 236.04C391.653 230.553 391.508 225.02 391.77 219.503L392.204 210.369C389.814 217.388 390.354 226.625 392.204 236.04Z" fill="#CACACA"/>
</g>
<path id="Vector_5" d="M409.424 247.336V252.47C409.422 252.878 409.285 253.268 409.044 253.557C408.802 253.845 408.474 254.008 408.132 254.01H405.98C405.924 254.01 405.868 254.023 405.815 254.049C405.763 254.074 405.715 254.112 405.675 254.16C405.635 254.208 405.604 254.264 405.582 254.327C405.561 254.389 405.55 254.456 405.55 254.523V296.622C405.548 297.03 405.411 297.421 405.17 297.709C404.928 297.998 404.6 298.161 404.258 298.163H378.002C377.659 298.162 377.331 298 377.089 297.711C376.847 297.422 376.71 297.031 376.71 296.622V254.523C376.71 254.387 376.664 254.257 376.584 254.161C376.503 254.065 376.394 254.01 376.28 254.01H373.697C373.355 254.01 373.026 253.847 372.784 253.558C372.542 253.27 372.406 252.878 372.406 252.47V247.336C372.406 247.133 372.439 246.933 372.504 246.746C372.568 246.559 372.664 246.389 372.784 246.246C372.904 246.103 373.046 245.989 373.203 245.912C373.36 245.835 373.528 245.795 373.697 245.795H408.132C408.475 245.797 408.802 245.959 409.044 246.248C409.286 246.537 409.423 246.928 409.424 247.336Z" fill="#DE946A"/>
<path id="Vector_6" d="M405.588 255.088H376.749V256.628H405.588V255.088Z" fill="#E6E6E6"/>
<path id="Vector_7" d="M405.55 277.752C395.899 282.515 386.144 282.568 376.28 277.752V266.901C385.776 263.097 396.054 263.097 405.55 266.901V277.752Z" fill="#EF693F" fill-opacity="0.6"/>
<path id="Vector_8" d="M327.794 184.96C326.453 175.335 325.069 165.525 321.319 156.855C318.854 151.175 314.941 145.763 309.666 144.64C308.627 144.53 307.606 144.248 306.632 143.802C305.087 142.914 284.318 128.773 281.017 126.31C278.182 124.196 273.708 120.281 271.452 120.281C269.183 120.221 260.48 122.637 226.512 119.47C226.512 119.47 217.181 123.857 209.96 129.176C209.851 129.09 174.705 151.601 173.385 151.542C170.884 151.416 168.56 153.326 167.126 155.731C165.693 158.136 165.021 161.112 164.317 163.991C171.993 184.381 179.017 204.797 186.694 225.187C187.054 225.955 187.245 226.819 187.249 227.699C187.095 228.612 186.768 229.471 186.294 230.21C182.529 237.423 182.649 246.496 183.06 254.974C183.472 263.452 183.981 272.407 180.804 280.006C179.94 282.092 178.817 284.002 177.995 286.088C176.071 290.813 175.375 305.926 176.499 311.003L317.325 315.814C314.297 305.887 327.794 184.96 327.794 184.96Z" fill="#6C63FF"/>
<path id="Path 1421" d="M152.144 226.091C151.863 228.516 151.835 230.972 152.06 233.405L154.078 267.979C154.268 271.237 154.454 274.488 154.711 277.738C155.195 284.047 155.918 290.305 156.816 296.554C156.837 297.441 157.151 298.282 157.691 298.893C158.231 299.504 158.952 299.835 159.696 299.812C168.581 302.055 177.76 301.965 186.828 301.354C200.665 300.433 236.065 298.69 238.228 295.339C240.39 291.988 239.13 286.568 236.31 283.858C233.49 281.149 186.775 274.543 186.775 274.543C187.231 270.228 188.608 266.165 189.914 262.069C192.26 254.804 194.452 247.3 194.494 239.517C194.536 231.734 192.078 223.551 186.732 219.093C182.336 215.432 176.674 214.753 171.316 214.904C167.418 215.038 160.682 213.924 157.121 215.742C154.304 217.222 152.67 222.801 152.144 226.091Z" fill="#FBBEBE"/>
<path id="Path 1430" d="M163.911 164.611C163.227 165.466 162.696 166.478 162.352 167.586C156.674 182.847 153.321 199.192 152.449 215.856C152.464 216.668 152.307 217.472 151.992 218.193C151.682 218.673 151.336 219.118 150.96 219.525C150.631 219.989 150.383 220.526 150.228 221.105C150.074 221.683 150.017 222.293 150.06 222.898C150.103 223.503 150.245 224.092 150.479 224.632C150.713 225.171 151.034 225.65 151.423 226.042C151.487 226.106 151.553 226.168 151.62 226.227C152.779 223.626 155.553 222.775 158.019 222.549C169.825 221.435 181.358 227.987 193.2 227.493C192.364 224.049 191.163 220.74 190.481 217.256C187.468 201.783 194.983 184.936 190.376 170.032C189.455 167.05 187.918 164.118 185.495 162.811C184.491 162.329 183.441 161.997 182.369 161.825C179.377 161.18 173.42 158.423 170.527 159.529C169.46 159.94 169.039 161.138 168.153 161.861C166.809 162.886 165.025 163.262 163.911 164.611Z" fill="#6C63FF"/>
<path id="Path 1421_2" d="M327.878 215.742C324.318 213.924 317.582 215.038 313.684 214.904C308.326 214.753 302.664 215.432 298.267 219.093C292.922 223.551 290.464 231.734 290.506 239.517C290.548 247.3 292.74 254.804 295.086 262.069C296.392 266.165 297.769 270.228 298.225 274.543C298.225 274.543 251.51 281.149 248.69 283.858C245.87 286.568 244.61 291.988 246.772 295.339C248.935 298.69 316.419 302.055 325.304 299.812C326.048 299.835 326.769 299.504 327.309 298.893C327.849 298.282 328.163 297.441 328.184 296.554C329.082 290.305 329.805 284.047 330.289 277.738C330.546 274.488 330.732 271.237 330.922 267.979L332.94 233.405C333.165 230.972 333.137 228.516 332.856 226.092C332.33 222.801 330.696 217.222 327.878 215.742Z" fill="#FBBEBE"/>
<path id="Path 1430_2" d="M316.847 161.861C315.961 161.138 315.54 159.94 314.472 159.529C311.58 158.423 305.623 161.18 302.631 161.825C301.559 161.997 300.509 162.329 299.505 162.811C297.082 164.118 295.545 167.05 294.624 170.033C290.017 184.936 297.532 201.783 294.519 217.256C293.837 220.74 292.636 224.049 291.8 227.493C303.642 227.987 315.175 221.435 326.981 222.549C329.447 222.775 332.221 223.626 333.38 226.227C333.447 226.168 333.513 226.106 333.577 226.042C333.966 225.65 334.287 225.171 334.521 224.632C334.755 224.092 334.897 223.503 334.94 222.898C334.983 222.293 334.926 221.683 334.772 221.105C334.617 220.526 334.369 219.989 334.04 219.525C333.664 219.118 333.318 218.673 333.008 218.193C332.693 217.472 332.536 216.668 332.551 215.856C331.679 199.192 328.326 182.847 322.648 167.586C322.304 166.478 321.773 165.466 321.089 164.611C319.975 163.262 318.191 162.886 316.847 161.861Z" fill="#6C63FF"/>
<path id="Vector_9" d="M232.348 301.463C238.162 301.463 242.876 295.841 242.876 288.906C242.876 281.971 238.162 276.349 232.348 276.349C226.533 276.349 221.82 281.971 221.82 288.906C221.82 295.841 226.533 301.463 232.348 301.463Z" fill="#FBBEBE"/>
<path id="Vector_10" d="M255.66 301.463C261.475 301.463 266.188 295.841 266.188 288.906C266.188 281.971 261.475 276.349 255.66 276.349C249.846 276.349 245.132 281.971 245.132 288.906C245.132 295.841 249.846 301.463 255.66 301.463Z" fill="#FBBEBE"/>
<path id="Vector_11" d="M320.647 317.202H176.007C174.319 317.2 172.7 316.399 171.506 314.975C170.312 313.55 169.64 311.619 169.638 309.605V204.944C169.64 202.93 170.312 200.999 171.506 199.575C172.7 198.151 174.319 197.349 176.007 197.347H320.647C322.336 197.349 323.955 198.151 325.149 199.575C326.343 200.999 327.015 202.93 327.017 204.944V309.605C327.015 311.619 326.343 313.55 325.149 314.975C323.955 316.399 322.336 317.2 320.647 317.202Z" fill="#3F3D56"/>
<path id="Ellipse 263" d="M247.977 262.301C250.304 262.301 252.191 260.051 252.191 257.275C252.191 254.499 250.304 252.248 247.977 252.248C245.649 252.248 243.762 254.499 243.762 257.275C243.762 260.051 245.649 262.301 247.977 262.301Z" fill="white"/>
<path id="Vector_12" d="M485 296.092H0V313.868H28.6872V318H456.324V313.868H485V296.092Z" fill="#E1A685"/>
<g id="face_with_headphones">
<path id="Ellipse 276" d="M243.901 111.844C265.444 111.844 282.908 91.0141 282.908 65.3188C282.908 39.6236 265.444 18.7934 243.901 18.7934C222.358 18.7934 204.893 39.6236 204.893 65.3188C204.893 91.0141 222.358 111.844 243.901 111.844Z" fill="#FEB8B8"/>
<path id="Path 1461" d="M280.334 25.1806C274.502 13.8852 265.373 5.56212 254.705 1.81342L249.916 5.98152V0.569362C247.354 0.101638 244.761 -0.0785431 242.17 0.0311893L238.039 4.48991V0.401621C231.922 1.30828 226.028 3.71682 220.731 7.47538C215.433 11.2339 210.845 16.261 207.258 22.2395C198.286 37.667 196.771 59.1299 205.596 74.6811C208.018 65.8014 210.958 57.4697 213.381 48.5908C215.285 48.9004 217.215 48.9116 219.121 48.624L222.068 40.4215L222.892 48.2769C232.027 47.3279 245.577 45.2434 254.237 43.3339L253.395 37.3073L258.433 42.315C261.086 41.5866 262.662 40.9256 262.532 40.4206C268.972 52.8056 276.855 60.7158 283.295 73.1008C285.741 55.6372 288.557 41.1166 280.334 25.1806Z" fill="#2F2E41"/>
<g id="headphones">
<path id="Vector_13" d="M208.031 82.6597C201.763 82.6597 196.682 76.1072 196.682 68.0242V60.7064C196.682 52.6234 201.763 46.0709 208.031 46.0709V82.6597H208.031Z" fill="#FF7F63"/>
<path id="Vector_14" d="M280.466 46.0709C286.734 46.0709 291.814 52.6234 291.814 60.7064V68.0242C291.814 76.1072 286.734 82.6597 280.466 82.6597V46.0709Z" fill="#FF7F63"/>
<path id="Vector_15" d="M286.413 61.8563H284.612C284.612 32.4068 266.034 8.4477 243.198 8.4477C220.362 8.4477 201.784 32.4068 201.784 61.8563H199.983C199.983 31.1263 219.369 6.1256 243.198 6.1256C267.027 6.12562 286.413 31.1263 286.413 61.8563Z" fill="#FF7F63"/>
</g>
</g>
</g>
<defs>
<clipPath id="clip0_2_2">
<rect width="485" height="318" fill="white"/>
</clipPath>
</defs>
</svg>
